# xmcd CD database file
#
# Track frame offsets:
#	150
#	35662
#	51775
#	79750
#	92017
#	113797
#	129337
#	149872
#	165185
#	190520
#
# Disc length: 3002 seconds
#
# Revision: 0
# Processed by: cddbd v1.5.1PL2 Copyright (c) Steve Scherf et al.
# Submitted via: CDex 1.51
#
DISCID=7e0bb80a
DTITLE=Jeff Hanson - (1st album)
DYEAR=2004
DGENRE=Rock
TTITLE0=LOSING A YEAR
TTITLE1=NOW WE KNOW
TTITLE2=WELCOME HERE
TTITLE3=I JUST DON'T BELIEVE YOU
TTITLE4=I KNOW YOUR NAME
TTITLE5=SOMEONE ELSE
TTITLE6=THIS TIME IT WILL
TTITLE7=LET YOU OUT
TTITLE8=LONG OVERDUE
TTITLE9=SOMETHING ABOUT
EXTD=YEAR: 2004
EXTT0=
EXTT1=
EXTT2=
EXTT3=
EXTT4=
EXTT5=
EXTT6=
EXTT7=
EXTT8=
EXTT9=
PLAYORDER=
